HIERARCHY
ROOT Cow_ROOTSHJnt
{
	OFFSET 0.000000 66.749710 104.418190
	CHANNELS 6 Xposition Yposition Zposition Xrotation Yrotation Zrotation
	JOINT Cow_Spine_01SHJnt
	{
		OFFSET 0.000000 -20.599148 -0.645164
		CHANNELS 3 Xrotation Yrotation Zrotation
		JOINT Cow_Spine_02SHJnt
		{
			OFFSET -0.000000 -20.593330 -0.659470
			CHANNELS 3 Xrotation Yrotation Zrotation
			JOINT Cow_Spine_03SHJnt
			{
				OFFSET -0.000000 -20.606550 -0.983307
				CHANNELS 3 Xrotation Yrotation Zrotation
				JOINT Cow_Spine_04SHJnt
				{
					OFFSET -0.000000 -20.599676 1.374176
					CHANNELS 3 Xrotation Yrotation Zrotation
					JOINT Cow_Spine_TopSHJnt
					{
						OFFSET -0.000000 -20.599678 0.913795
						CHANNELS 3 Xrotation Yrotation Zrotation
						JOINT Cow_l_Clavicle_01_01SHJnt
						{
							OFFSET 11.171912 0.000000 0.000000
							CHANNELS 3 Xrotation Yrotation Zrotation
							JOINT Cow_l_FrontLeg_HipSHJnt
							{
								OFFSET 7.976342 -4.953094 -13.093445
								CHANNELS 3 Xrotation Yrotation Zrotation
								JOINT Cow_l_FrontLeg_Knee1SHJnt
								{
									OFFSET 0.000006 -3.929440 -54.085663
									CHANNELS 3 Xrotation Yrotation Zrotation
									JOINT Cow_l_FrontLeg_Knee2SHJnt
									{
										OFFSET 0.000000 1.964958 -22.377888
										CHANNELS 3 Xrotation Yrotation Zrotation
										JOINT Cow_l_FrontLeg_AnkleSHJnt
										{
											OFFSET 0.000000 -0.663105 -5.827117
											CHANNELS 3 Xrotation Yrotation Zrotation
											JOINT Cow_l_FrontLeg_BallSHJnt
											{
												OFFSET 0.000006 -5.970051 -9.033520
												CHANNELS 3 Xrotation Yrotation Zrotation
												JOINT Cow_l_FrontLeg_ToeSHJnt
												{
													OFFSET 0.000006 -7.439106 -0.000235
													CHANNELS 3 Xrotation Yrotation Zrotation
													End Site
													{
														OFFSET 7.439106 0.000004 0.000000
													}
												}
											}
										}
									}
								}
							}
						}
						JOINT Cow_r_Clavicle_01_01SHJnt
						{
							OFFSET -11.171912 0.000000 0.000000
							CHANNELS 3 Xrotation Yrotation Zrotation
							JOINT Cow_r_FrontLeg_HipSHJnt
							{
								OFFSET -7.976342 -4.953094 -13.093445
								CHANNELS 3 Xrotation Yrotation Zrotation
								JOINT Cow_r_FrontLeg_Knee1SHJnt
								{
									OFFSET 0.000006 -3.929440 -54.085663
									CHANNELS 3 Xrotation Yrotation Zrotation
									JOINT Cow_r_FrontLeg_Knee2SHJnt
									{
										OFFSET 0.000000 1.964958 -22.377888
										CHANNELS 3 Xrotation Yrotation Zrotation
										JOINT Cow_r_FrontLeg_AnkleSHJnt
										{
											OFFSET 0.000000 -0.663105 -5.827118
											CHANNELS 3 Xrotation Yrotation Zrotation
											JOINT Cow_r_FrontLeg_BallSHJnt
											{
												OFFSET 0.000006 -5.970051 -9.033520
												CHANNELS 3 Xrotation Yrotation Zrotation
												JOINT Cow_r_FrontLeg_ToeSHJnt
												{
													OFFSET 0.000006 -7.439106 -0.000235
													CHANNELS 3 Xrotation Yrotation Zrotation
													End Site
													{
														OFFSET 7.439106 0.000004 0.000000
													}
												}
											}
										}
									}
								}
							}
						}
						JOINT Cow_Neck_01SHJnt
						{
							OFFSET 0.000000 -25.141075 -3.042923
							CHANNELS 3 Xrotation Yrotation Zrotation
							JOINT Cow_Neck_02SHJnt
							{
								OFFSET -0.000000 -19.440186 5.198975
								CHANNELS 3 Xrotation Yrotation Zrotation
								JOINT Cow_Neck_TopSHJnt
								{
									OFFSET -0.000000 -15.102203 2.823219
									CHANNELS 3 Xrotation Yrotation Zrotation
									JOINT Cow_Head_JawSHJnt
									{
										OFFSET 0.000000 -35.995033 -11.047020
										CHANNELS 3 Xrotation Yrotation Zrotation
										JOINT Cow_Head_JawEndSHJnt
										{
											OFFSET 0.000001 -14.239838 -8.004066
											CHANNELS 3 Xrotation Yrotation Zrotation
											End Site
											{
												OFFSET 0.000001 -14.351303 -7.802444
											}
										}
									}
									JOINT Cow_Head_TopSHJnt
									{
										OFFSET -0.000001 -27.576538 24.239853
										CHANNELS 3 Xrotation Yrotation Zrotation
										JOINT Cow_l_Ear_01_01SHJnt
										{
											OFFSET 14.495198 16.691696 -8.068298
											CHANNELS 3 Xrotation Yrotation Zrotation
											JOINT Cow_l_Ear_01_02SHJnt
											{
												OFFSET 6.722663 2.771584 1.751846
												CHANNELS 3 Xrotation Yrotation Zrotation
												JOINT Cow_l_Ear_01_03SHJnt
												{
													OFFSET 10.716763 -0.206581 1.540665
													CHANNELS 3 Xrotation Yrotation Zrotation
													End Site
													{
														OFFSET 0.679575 -10.457191 -2.729607
													}
												}
											}
										}
										JOINT Cow_r_Ear_01_01SHJnt
										{
											OFFSET -14.495194 16.691696 -8.068306
											CHANNELS 3 Xrotation Yrotation Zrotation
											JOINT Cow_r_Ear_01_02SHJnt
											{
												OFFSET -6.722663 2.771584 1.751839
												CHANNELS 3 Xrotation Yrotation Zrotation
												JOINT Cow_r_Ear_01_03SHJnt
												{
													OFFSET -10.716763 -0.206581 1.540665
													CHANNELS 3 Xrotation Yrotation Zrotation
													End Site
													{
														OFFSET -0.679575 -10.457191 -2.729607
													}
												}
											}
										}
									}
								}
							}
							JOINT Cow_NeckSkin_01_01SHJnt
							{
								OFFSET 0.000001 -3.570503 -28.699036
								CHANNELS 3 Xrotation Yrotation Zrotation
								JOINT Cow_NeckSkin_01_02SHJnt
								{
									OFFSET 0.000001 -3.287460 -13.726460
									CHANNELS 3 Xrotation Yrotation Zrotation
									End Site
									{
										OFFSET 0.000000 -13.726448 3.287464
									}
								}
							}
						}
					}
				}
			}
		}
	}
	JOINT Cow_l_HindLeg_HipSHJnt
	{
		OFFSET 22.626928 3.434624 -17.868790
		CHANNELS 3 Xrotation Yrotation Zrotation
		JOINT Cow_l_HindLeg_Knee1SHJnt
		{
			OFFSET -4.433996 11.629982 -42.020042
			CHANNELS 3 Xrotation Yrotation Zrotation
			JOINT Cow_l_HindLeg_Knee2SHJnt
			{
				OFFSET 0.572979 -5.223473 -32.422234
				CHANNELS 3 Xrotation Yrotation Zrotation
				JOINT Cow_l_HindLeg_AnkleSHJnt
				{
					OFFSET 0.961411 -2.095169 -7.270233
					CHANNELS 3 Xrotation Yrotation Zrotation
					JOINT Cow_l_HindLeg_BallSHJnt
					{
						OFFSET 0.000000 -3.795708 -4.836911
						CHANNELS 3 Xrotation Yrotation Zrotation
						JOINT Cow_l_HindLeg_ToeSHJnt
						{
							OFFSET 0.000000 -6.175804 0.000002
							CHANNELS 3 Xrotation Yrotation Zrotation
							End Site
							{
								OFFSET 6.175808 0.000000 0.000000
							}
						}
					}
				}
			}
		}
	}
	JOINT Cow_r_HindLeg_HipSHJnt
	{
		OFFSET -22.626928 3.434624 -17.868790
		CHANNELS 3 Xrotation Yrotation Zrotation
		JOINT Cow_r_HindLeg_Knee1SHJnt
		{
			OFFSET 4.434002 11.629982 -42.020042
			CHANNELS 3 Xrotation Yrotation Zrotation
			JOINT Cow_r_HindLeg_Knee2SHJnt
			{
				OFFSET -0.572975 -5.223473 -32.422234
				CHANNELS 3 Xrotation Yrotation Zrotation
				JOINT Cow_r_HindLeg_AnkleSHJnt
				{
					OFFSET -0.961411 -2.095169 -7.270234
					CHANNELS 3 Xrotation Yrotation Zrotation
					JOINT Cow_r_HindLeg_BallSHJnt
					{
						OFFSET 0.000000 -3.795708 -4.836910
						CHANNELS 3 Xrotation Yrotation Zrotation
						JOINT Cow_r_HindLeg_ToeSHJnt
						{
							OFFSET 0.000000 -6.175804 0.000002
							CHANNELS 3 Xrotation Yrotation Zrotation
							End Site
							{
								OFFSET 6.175806 0.000000 0.000001
							}
						}
					}
				}
			}
		}
	}
	JOINT Cow_Tail_01_01SHJnt
	{
		OFFSET 0.000000 20.837936 23.982246
		CHANNELS 3 Xrotation Yrotation Zrotation
		JOINT Cow_Tail_01_02SHJnt
		{
			OFFSET -0.000000 7.960037 -11.072281
			CHANNELS 3 Xrotation Yrotation Zrotation
			JOINT Cow_Tail_01_03SHJnt
			{
				OFFSET -0.000000 2.666931 -14.319489
				CHANNELS 3 Xrotation Yrotation Zrotation
				JOINT Cow_Tail_01_04SHJnt
				{
					OFFSET -0.000000 -1.425102 -14.386597
					CHANNELS 3 Xrotation Yrotation Zrotation
					JOINT Cow_Tail_01_05SHJnt
					{
						OFFSET -0.000000 -1.119919 -14.413574
						CHANNELS 3 Xrotation Yrotation Zrotation
						JOINT Cow_Tail_01_06SHJnt
						{
							OFFSET -0.000000 0.772911 -13.741093
							CHANNELS 3 Xrotation Yrotation Zrotation
							JOINT Cow_Tail_01_07SHJnt
							{
								OFFSET -0.000000 3.111671 -14.118168
								CHANNELS 3 Xrotation Yrotation Zrotation
								End Site
								{
									OFFSET -0.000000 14.118164 3.111679
								}
							}
						}
					}
				}
			}
		}
	}
	JOINT Cow_Udder_01_01SHJnt
	{
		OFFSET 0.000000 -7.188259 -41.393276
		CHANNELS 3 Xrotation Yrotation Zrotation
		JOINT Cow_Udder_01_02SHJnt
		{
			OFFSET 0.000001 3.137054 -13.240067
			CHANNELS 3 Xrotation Yrotation Zrotation
			End Site
			{
				OFFSET 0.000001 13.240070 3.137051
			}
		}
	}
}
MOTION
Frames: 4
Frame Time: 0.040000
-2.452282 66.749702 102.955887 -0.000000 0.000000 -0.834710 -3.002429 -0.495073 9.354067 2.250994 0.076776 -5.561115 4.284613 -0.368965 -6.031967 7.117232 -1.120862 -5.951830 -10.679546 0.000280 9.128606 22.001757 -0.000002 0.000016 -9.835793 3.484904 0.078289 10.579496 0.000008 -0.000000 -74.085764 -0.807564 -2.804340 58.349227 -0.588430 0.464638 -0.000001 -0.000010 -0.000000 -0.000000 0.000000 -0.000000 0.385462 1.962847 0.343008 -16.713633 -5.668532 -2.232676 5.795306 0.000001 -0.000003 -21.447866 -0.503079 1.662235 31.000671 3.692244 -1.492894 0.000000 0.000052 0.000000 -0.000000 0.000000 0.000000 -0.217855 -0.000002 0.000006 0.006588 0.000002 0.000004 8.146618 0.000032 -0.000013 -23.549078 0.000005 -0.000008 0.000002 0.000000 0.000000 -0.000009 0.000000 -0.000000 -0.107588 0.400052 0.092416 -0.027018 0.409838 0.107084 0.000000 0.000001 -0.000000 -0.107608 -0.400062 -0.092418 -0.027019 -0.409854 -0.107085 -0.000000 -0.000000 -0.000001 0.001077 0.718573 -0.172119 0.000000 0.000000 -0.000000 7.648353 6.481700 -3.855531 -45.340216 -11.800988 -3.632259 75.883081 8.537053 -6.400993 19.199595 -3.958271 4.575533 0.000000 0.000002 0.000000 0.000004 -0.000000 -0.000000 3.524525 -5.656555 1.547606 -4.104210 1.157919 -0.072071 2.585860 -0.866219 1.001730 -1.761648 5.487000 -1.250830 0.000005 -0.000000 -0.000000 -0.000000 0.000000 -0.000000 -0.092828 3.412770 3.111327 -0.000104 0.229547 0.049331 0.004609 2.308492 -0.228797 0.003629 2.312837 -0.179804 -0.004392 2.309559 0.217808 0.000000 0.000001 0.000001 -0.000001 0.000000 0.000000 -0.050934 4.915145 1.167510 -0.010543 2.257272 0.535114 
-2.304301 66.749695 102.780388 -0.000000 0.000000 -2.049519 -3.213273 -0.519103 9.177076 2.356228 0.065329 -4.507909 4.155099 -0.316933 -5.510565 6.702404 -0.986713 -5.570561 -10.036498 0.001178 8.538089 21.284466 0.000001 0.000011 -15.650477 3.267470 0.527467 27.154904 0.000022 -0.000005 -58.333470 -0.128273 -1.216420 48.842112 -2.128669 1.324116 0.000001 -0.000039 -0.000000 0.000003 -0.000000 0.000000 1.327563 6.529148 1.040512 -15.651001 -10.705061 -3.685534 6.828778 0.000002 -0.000004 -22.281505 -0.359055 1.519509 29.429929 4.339785 -1.686377 0.000000 0.000064 0.000000 0.000000 -0.000000 0.000000 -0.217855 -0.000002 0.000006 0.034197 -0.000005 -0.000001 8.447192 0.000098 -0.000043 -23.549073 0.000005 -0.000008 0.000002 0.000000 0.000000 0.000000 0.000000 0.000000 -0.400043 1.474106 0.344589 -0.103430 1.510842 0.395850 0.000004 0.000002 0.000000 -0.400060 -1.474149 -0.344602 -0.103438 -1.510895 -0.395864 0.000000 0.000000 0.000000 0.003894 -1.365098 0.327127 0.000000 0.000000 0.000000 4.211855 6.437146 -2.390462 -42.752640 -11.247840 -3.184300 68.191625 8.976486 -5.853502 21.430931 -4.012827 5.031604 0.000003 0.000002 0.000000 0.000002 0.000000 -0.000000 6.257349 -5.077914 2.548873 -2.487984 0.701332 -0.053591 2.613138 -0.899592 0.671215 -6.042618 5.590079 -0.500690 0.000005 0.000000 -0.000000 0.000000 -0.000000 -0.000000 -0.097598 3.500938 3.191992 -0.000362 0.436220 0.093744 0.003820 2.101180 -0.208231 0.003006 2.105120 -0.163641 -0.003636 2.102143 0.198229 0.000000 0.000001 0.000001 0.000000 0.000001 -0.000000 -0.036050 4.162878 0.988119 -0.008733 2.054556 0.487012 
-2.026880 66.749702 102.506653 -0.000000 0.000000 -3.163332 -3.553777 -0.533170 8.542512 2.534210 0.053017 -3.238920 3.942465 -0.243044 -4.711788 6.036915 -0.782170 -4.913494 -9.005044 0.002084 7.519640 20.057762 0.000000 0.000007 -19.801401 3.143001 0.940864 35.203973 0.000024 -0.000007 -23.305731 -0.860910 -0.012692 35.232141 -2.157627 0.928189 0.000002 -0.000053 -0.000000 0.000004 -0.000000 -0.000000 2.810625 10.751464 1.831155 -14.608100 -15.359089 -4.982688 5.673799 0.000005 0.000004 -22.302514 -0.109560 1.410011 27.562296 4.791052 -1.771003 0.000000 0.000068 0.000000 -0.000000 0.000000 0.000000 -0.217856 -0.000002 0.000006 0.072583 -0.000001 -0.000001 8.864484 0.000120 -0.000058 -23.549078 0.000005 -0.000008 0.000002 0.000000 -0.000000 0.000002 0.000000 -0.000000 -0.841002 3.055330 0.727327 -0.226356 3.133614 0.824765 0.000000 0.000002 -0.000000 -0.841013 -3.055432 -0.727352 -0.226368 -3.133723 -0.824795 -0.000000 0.000000 0.000001 0.008569 -2.024346 0.485057 -0.000001 -0.000000 0.000000 0.214284 5.973871 -0.792686 -37.878187 -10.148716 -2.409745 56.724253 9.409696 -4.861540 22.294559 -4.470206 5.432502 0.000003 0.000002 0.000000 0.000001 0.000000 0.000000 8.282967 -4.368704 3.436569 -1.063165 0.299390 -0.026631 3.503168 -1.109078 0.323581 -10.326496 5.665294 0.249824 0.000005 -0.000000 -0.000000 0.000000 0.000000 0.000000 -0.089216 3.344320 3.048716 -0.000640 0.582670 0.125221 0.002638 1.746606 -0.173068 0.002077 1.749887 -0.136008 -0.002510 1.747415 0.164755 -0.000001 0.000001 0.000001 0.000000 0.000000 0.000000 -0.043855 4.584669 1.088662 -0.006034 1.707863 0.404778 
-1.663671 66.749695 102.180260 -0.000000 0.000000 -4.142184 -3.966799 -0.522140 7.513291 2.797547 0.035819 -1.833349 3.672765 -0.163169 -3.692886 5.211592 -0.551120 -4.022935 -7.730602 0.002136 6.150147 18.415397 0.000000 0.000007 -21.209421 3.135696 1.277732 33.627658 0.000025 -0.000003 15.085280 -2.965591 1.300837 21.613551 -0.184604 0.010942 0.000001 -0.000014 0.000000 0.000001 0.000000 -0.000000 5.051534 12.315817 2.440056 -14.915694 -17.028903 -5.762790 7.019266 0.000002 -0.000003 -23.974712 0.253177 1.368968 25.584260 4.836423 -1.692334 0.000000 0.000057 0.000000 -0.000000 -0.000000 0.000000 -0.217856 -0.000002 0.000006 0.108781 0.000006 -0.000001 9.257407 0.000073 -0.000038 -23.549080 0.000005 -0.000008 0.000000 -0.000000 0.000000 -0.000005 0.000000 -0.000000 -1.323780 4.735596 1.149615 -0.370920 4.860532 1.286272 0.000003 0.000002 0.000000 -1.323836 -4.735752 -1.149653 -0.370934 -4.860695 -1.286311 -0.000001 0.000000 0.000001 0.003060 -1.210322 0.289841 0.000002 -0.000000 0.000000 -3.886623 5.251573 0.770218 -30.807848 -8.435276 -1.458090 42.827861 9.044587 -3.619342 22.063188 -4.868367 5.586135 0.000001 0.000002 0.000000 -0.000000 -0.000000 -0.000000 9.829537 -3.641268 4.236701 -0.186348 0.052443 -0.005064 5.329521 -1.503422 -0.046850 -14.559023 5.696701 0.992264 0.000005 -0.000000 -0.000000 -0.000000 0.000000 0.000000 -0.069069 2.934437 2.674069 -0.000823 0.659630 0.141760 0.001402 1.271904 -0.126013 0.001101 1.274285 -0.099028 -0.001333 1.272485 0.119959 0.000000 0.000001 0.000000 0.000001 0.000001 -0.000000 -0.067560 5.682867 1.351035 -0.003198 1.243688 0.294722 
